<svg xmlns="http://www.w3.org/2000/svg" width="12" height="12" viewBox="0 0 12 12"><defs><style>.a{fill:#660d99;}</style></defs><g transform="translate(-5 -3)"><path class="a" d="M17,6.724A3.507,3.507,0,0,0,13.667,3a3.612,3.612,0,0,0-2,.621,1.273,1.273,0,0,1-1.333,0,3.612,3.612,0,0,0-2-.621A3.507,3.507,0,0,0,5,6.724a5.323,5.323,0,0,0,.889,2.483C7.782,12.662,8.242,15,9.444,15c.744,0,.889-.454.889-2.069,0-1.846.171-2.276.667-2.276s.667.43.667,2.276c0,1.615.145,2.069.889,2.069,1.2,0,1.662-2.338,3.556-5.793A5.323,5.323,0,0,0,17,6.724Z"/><path class="a" d="M8.467,9.517,8,9.483C8.2,6.728,10.07,6,11.033,6v.467C10.938,6.467,8.68,6.516,8.467,9.517Z" transform="translate(-2.3 -2.3)"/><path class="a" d="M8,23h.467v.467H8Z" transform="translate(-2.3 -15.881)"/></g></svg>