<svg xmlns="http://www.w3.org/2000/svg" width="51" height="33" viewBox="0 0 51 33"><defs><style>.a{fill:#faf9fa;}</style></defs><g transform="translate(0 0)"><g transform="translate(0)"><path class="a" d="M35.238,91.624,22.016,87.063a5.121,5.121,0,0,0-3.854.236l-.664.321a3.743,3.743,0,0,1-2.9.161l-1.135-.407a1.171,1.171,0,0,0-.161-.086l-6.766-2.3a.654.654,0,0,0-.492.032.633.633,0,0,0-.321.364L.036,101.966a.642.642,0,0,0,.4.814L7.209,105.1a.51.51,0,0,0,.214.043.625.625,0,0,0,.278-.064.634.634,0,0,0,.321-.364l5.471-15.952.685.246a5.08,5.08,0,0,0,3.9-.225l.664-.321a3.762,3.762,0,0,1,2.869-.182l12.73,4.39a3.029,3.029,0,0,1-1.06,1.959,2.924,2.924,0,0,1-2.655.054l-5.556-1.895a.661.661,0,0,0-.514.043.679.679,0,0,0-.321.407,7.815,7.815,0,0,1-3.4,4.443,7.322,7.322,0,0,1-5.985.107A.64.64,0,1,0,14.425,99a11.006,11.006,0,0,0,3.544.642,7.17,7.17,0,0,0,3.469-.846A8.731,8.731,0,0,0,25.249,94.2L30.185,95.9A4.117,4.117,0,0,0,34,95.681a4.706,4.706,0,0,0,1.67-3.437A.637.637,0,0,0,35.238,91.624ZM7.027,103.679,1.46,101.773,6.728,86.41l5.417,1.852.128.064.021.011Z" transform="translate(0 -84.953)"/></g></g><g transform="translate(9.109 0.107)"><g transform="translate(0 0)"><path class="a" d="M138.868,101.5l-7.73-15.2a.627.627,0,0,0-.364-.311.674.674,0,0,0-.492.031l-6.434,3.047a.615.615,0,0,0-.3.829l7.494,14.819-2.516,2.228a30.174,30.174,0,0,1-7.141,4.715l-12.323,5.834a1.461,1.461,0,0,1-1.916-.642,1.3,1.3,0,0,1-.064-1.057,1.423,1.423,0,0,1,.728-.8l6.884-3.264a.615.615,0,0,0,.3-.829.658.658,0,0,0-.856-.29L107.4,113.8l-3.394,1.606a1.461,1.461,0,0,1-1.916-.632,1.375,1.375,0,0,1,.653-1.855l9.893-4.684a.615.615,0,0,0,.3-.829.658.658,0,0,0-.857-.29l-7.323,3.472-2.569,1.212-1.21.57a1.461,1.461,0,0,1-1.916-.632,1.372,1.372,0,0,1,.653-1.855l1.221-.58,8.854-4.2a.615.615,0,0,0,.3-.829.658.658,0,0,0-.857-.29l-5.685,2.694-3.169,1.5a1.461,1.461,0,0,1-1.916-.642,1.3,1.3,0,0,1-.064-1.057,1.423,1.423,0,0,1,.728-.8l4.7-2.228a.615.615,0,0,0,.3-.829.658.658,0,0,0-.856-.29l-4.7,2.228a2.665,2.665,0,0,0-1.381,1.513,2.531,2.531,0,0,0,.128,2.01,2.628,2.628,0,0,0,1.146,1.15,2.565,2.565,0,0,0-.535,3.026,2.72,2.72,0,0,0,2.441,1.472c.118,0,.236-.01.353-.021a2.589,2.589,0,0,0,.236,1.586,2.759,2.759,0,0,0,3.629,1.2l1.167-.56a2.439,2.439,0,0,0,.268,1.42,2.7,2.7,0,0,0,1.563,1.337,2.9,2.9,0,0,0,.889.145,2.8,2.8,0,0,0,1.188-.269l12.323-5.834a31.343,31.343,0,0,0,7.441-4.922l2.794-2.487,6.349-3.005A.615.615,0,0,0,138.868,101.5Zm-6.745,2.529L124.982,89.9l5.289-2.5,7.13,14.125Z" transform="translate(-97.04 -85.952)"/></g></g></svg>