<svg xmlns="http://www.w3.org/2000/svg" width="12" height="12" viewBox="0 0 12 12"><defs><style>.a{fill:#650d99;}</style></defs><g transform="translate(-0.153)"><g transform="translate(0.837)"><path class="a" d="M39.644,10.2,34.942,5.5,29.449,0H29.02l-.088.223a3.944,3.944,0,0,0-.286,1.74,2.459,2.459,0,0,0,.688,1.57l4.288,4.292.566-.566L38.153,11.7A1.055,1.055,0,0,0,39.644,10.2Z" transform="translate(-28.636)"/></g><g transform="translate(0.153 6.706)"><g transform="translate(0)"><path class="a" d="M3.911,291.442.469,294.884A1.081,1.081,0,0,0,2,296.412l3.442-3.442Z" transform="translate(-0.153 -291.442)"/></g></g><g transform="translate(6.453 0.009)"><path class="a" d="M279.536,2.4l-1.953,1.953-.509-.509,1.953-1.953-.509-.509-1.953,1.953-.509-.509L278.008.87,277.5.361l-2.547,2.547a1.8,1.8,0,0,0-.524,1.165,1.037,1.037,0,0,1-.074.325l1.655,1.654a1.037,1.037,0,0,1,.325-.074,1.8,1.8,0,0,0,1.165-.524l2.547-2.547Z" transform="translate(-274.354 -0.361)"/></g></g></svg>