<svg xmlns="http://www.w3.org/2000/svg" width="13" height="13" viewBox="0 0 13 13"><defs><style>.a{fill:#650d99;}</style></defs><g transform="translate(0 -16.308)"><g transform="translate(0.879 23.154)"><path class="a" d="M32,271.692v5.275a.88.88,0,0,0,.879.879h4.4v-6.154Z" transform="translate(-32 -271.692)"/></g><g transform="translate(0 16.308)"><path class="a" d="M12.188,19.808H9.617a3.217,3.217,0,0,0,.453-.393,1.946,1.946,0,0,0,0-2.587,1.625,1.625,0,0,0-2.383,0,5.035,5.035,0,0,0-1.158,2.98H6.471a5.045,5.045,0,0,0-1.158-2.98,1.626,1.626,0,0,0-2.383,0,1.949,1.949,0,0,0,0,2.587,3.275,3.275,0,0,0,.454.393H.813A.849.849,0,0,0,0,20.687v1.319a.424.424,0,0,0,.406.44H5.688V20.687H7.313v1.758h5.281a.424.424,0,0,0,.406-.44V20.687A.849.849,0,0,0,12.188,19.808ZM5.64,19.779a.252.252,0,0,1-.15.029,3.874,3.874,0,0,1-1.983-1.013,1.016,1.016,0,0,1,0-1.347.821.821,0,0,1,1.231,0C5.285,18.044,5.829,19.567,5.64,19.779Zm1.87.029c-.115,0-.149-.028-.149-.029-.189-.212.355-1.735.9-2.331a.839.839,0,0,1,1.231,0,1.014,1.014,0,0,1,0,1.347A3.873,3.873,0,0,1,7.51,19.808Z" transform="translate(0 -16.308)"/></g><g transform="translate(6.846 23.154)"><path class="a" d="M288,271.692v6.154h4.4a.88.88,0,0,0,.879-.879v-5.275Z" transform="translate(-288 -271.692)"/></g></g></svg>