<svg xmlns="http://www.w3.org/2000/svg" width="23" height="30" viewBox="0 0 23 30"><defs><style>.a{opacity:0.8;}.b{fill:#FFFFFF;}</style></defs><g class="a" transform="translate(-39.08)"><g transform="translate(39.08)"><path class="b" d="M113.09,224.726H101.871a.54.54,0,0,0,0,1.064H113.09a.531.531,0,0,0,.173,0,.539.539,0,0,0-.173-1.064Z" transform="translate(-95.895 -204.797)"/><path class="b" d="M113.09,101.686H101.871a.54.54,0,0,0,0,1.064H113.09a.531.531,0,0,0,.173,0,.539.539,0,0,0-.173-1.064Z" transform="translate(-95.895 -92.665)"/><path class="b" d="M113.09,193.966H101.871a.54.54,0,0,0,0,1.064H113.09a.539.539,0,1,0,0-1.064Z" transform="translate(-95.895 -176.764)"/><path class="b" d="M56.07.167A.536.536,0,0,0,55.685,0H41.615V0A2.542,2.542,0,0,0,39.08,2.543V27.457A2.542,2.542,0,0,0,41.615,30H59.545a2.542,2.542,0,0,0,2.535-2.543V6.2Zm.152,1.681,4.189,4.2H57.35a1.137,1.137,0,0,1-1.128-1.131Zm4.949,25.61a1.466,1.466,0,0,1-1.457,1.461h-18.1a1.466,1.466,0,0,1-1.457-1.461V2.543a1.466,1.466,0,0,1,1.457-1.461H55.144V4.9A2.213,2.213,0,0,0,57.35,7.113h3.822Z" transform="translate(-39.08)"/><path class="b" d="M111.3,132.446h-11.22a.531.531,0,0,0-.173,0,.539.539,0,0,0,.173,1.064H111.3a.539.539,0,1,0,0-1.064Z" transform="translate(-94.104 -120.698)"/><path class="b" d="M113.09,163.206H101.871a.539.539,0,0,0,0,1.064H113.09a.53.53,0,0,0,.173,0,.539.539,0,0,0-.173-1.064Z" transform="translate(-95.895 -148.731)"/></g></g></svg>