<svg xmlns="http://www.w3.org/2000/svg" width="8.857" height="11.809" viewBox="0 0 8.857 11.809"><defs><style>.a{fill:#650d99;}</style></defs><path class="a" d="M72.658,1.427a.342.342,0,0,0-.344,0,2.744,2.744,0,0,1-1.348.344,2.57,2.57,0,0,1-1.85-.728A2.968,2.968,0,0,0,66.976.2a3.082,3.082,0,0,0-1.8.559V.59A.59.59,0,0,0,64,.59V11.218a.59.59,0,0,0,1.181,0V6.1a.344.344,0,0,0,.179-.071,2.669,2.669,0,0,1,1.618-.52,2.574,2.574,0,0,1,1.854.728,2.966,2.966,0,0,0,2.135.846,3.076,3.076,0,0,0,1.72-.5.394.394,0,0,0,.169-.335V1.771A.394.394,0,0,0,72.658,1.427Z" transform="translate(-63.998)"/></svg>