<svg xmlns="http://www.w3.org/2000/svg" width="7.059" height="12" viewBox="0 0 7.059 12"><defs><style>.a{fill:#650199;}</style></defs><path class="a" d="M40.43,302.946a.706.706,0,0,1-.352-.964l.265-.6c.178-.366.486-.46.973-.23a6.219,6.219,0,0,0,2.208.5c.617,0,1.238-.185,1.238-.735,0-.32-.178-.459-.486-.6a7.09,7.09,0,0,0-1.413-.414c-1.369-.365-2.607-1.054-2.607-2.749a2.692,2.692,0,0,1,2.473-2.658v-.871a.664.664,0,0,1,.708-.64H44.1a.693.693,0,0,1,.708.64v.871a5.369,5.369,0,0,1,1.59.459.675.675,0,0,1,.443.915l-.178.6a.67.67,0,0,1-.973.414,5.86,5.86,0,0,0-2.077-.459c-.751,0-1.194.184-1.194.641,0,.64.708.824,2.033,1.145,1.412.365,2.607.915,2.607,2.564a2.624,2.624,0,0,1-2.473,2.75v.825a.692.692,0,0,1-.708.64h-.664a.693.693,0,0,1-.708-.64v-.78A7.964,7.964,0,0,1,40.43,302.946Z" transform="translate(-40 -293)"/></svg>