<svg xmlns="http://www.w3.org/2000/svg" width="29.618" height="28.747" viewBox="0 0 29.618 28.747"><defs><style>.a{fill:#650d99;isolation:isolate;}</style></defs><g transform="translate(-1639.553 -1365.096)"><path class="a" d="M1651.2,1367.143a2.455,2.455,0,0,0-.826.48.18.18,0,0,1-.285-.058l-1.1-2.469-7.8,3.469a2.765,2.765,0,0,0-1.4,3.65l3.469,7.8,2.333-1.038a.181.181,0,0,0,.09-.24v0a3.113,3.113,0,1,1,5.689-2.531v0a.18.18,0,0,0,.238.094l1.975-.878-1.456-3.273a.178.178,0,0,1,.14-.251,2.451,2.451,0,1,0-1.067-4.755Z"/><path class="a" d="M1718.7,1384.7h-8.536v1.917a.18.18,0,0,0,.183.179h0a3.114,3.114,0,1,1,0,6.227h0a.18.18,0,0,0-.183.179v2.8h3.242a.18.18,0,0,1,.17.237,2.451,2.451,0,1,0,4.675-.008.178.178,0,0,1,.172-.229h3.043v-8.536A2.765,2.765,0,0,0,1718.7,1384.7Z" transform="translate(-52.296 -14.522)"/><path class="a" d="M1709.444,1432.245a.179.179,0,0,0-.179.183v.031a3.114,3.114,0,0,1-6.227,0c0-.01,0-.021,0-.031a.179.179,0,0,0-.179-.183H1700.4v2.945a.18.18,0,0,1-.237.17,2.451,2.451,0,1,0,.008,4.676.178.178,0,0,1,.229.172v3.338h8.536a2.765,2.765,0,0,0,2.765-2.765v-8.536Z" transform="translate(-42.531 -49.731)"/><path class="a" d="M1673.638,1431.153a3.113,3.113,0,1,1,0-6.227h0a.18.18,0,0,0,.182-.179v-2.162h-2.945a.18.18,0,0,1-.17-.237,2.451,2.451,0,1,0-4.676.007.178.178,0,0,1-.172.229h-3.338v8.536a2.765,2.765,0,0,0,2.765,2.765h8.536v-2.554a.181.181,0,0,0-.182-.18Z" transform="translate(-17.01 -40.044)"/></g></svg>