<svg xmlns="http://www.w3.org/2000/svg" width="26.097" height="23.218" viewBox="0 0 26.097 23.218"><defs><style>.a{fill:#fff;opacity:0.8;}</style></defs><g transform="translate(-129.952 -11.38)"><path class="a" d="M144.048,35.53a1.531,1.531,0,0,1-1.009-.379c-1.054-.922-2.07-1.788-2.967-2.552l0,0a55.208,55.208,0,0,1-6.48-6.081A9.713,9.713,0,0,1,131,20.155a8.155,8.155,0,0,1,2.07-5.571,7.017,7.017,0,0,1,5.22-2.272,6.561,6.561,0,0,1,4.1,1.415,8.377,8.377,0,0,1,1.658,1.731,8.377,8.377,0,0,1,1.658-1.731,6.562,6.562,0,0,1,4.1-1.415,7.016,7.016,0,0,1,5.219,2.272,8.155,8.155,0,0,1,2.07,5.571,9.712,9.712,0,0,1-2.588,6.358,55.239,55.239,0,0,1-6.478,6.081c-.9.765-1.917,1.633-2.973,2.557A1.534,1.534,0,0,1,144.048,35.53Zm-5.758-21.689a5.508,5.508,0,0,0-4.1,1.78,6.638,6.638,0,0,0-1.665,4.535,8.171,8.171,0,0,0,2.237,5.383,54.31,54.31,0,0,0,6.294,5.893l0,0c.9.767,1.92,1.637,2.983,2.566,1.069-.93,2.09-1.8,2.992-2.57a54.2,54.2,0,0,0,6.293-5.893,8.171,8.171,0,0,0,2.237-5.383,6.638,6.638,0,0,0-1.665-4.535,5.505,5.505,0,0,0-4.1-1.78,5.068,5.068,0,0,0-3.165,1.1,7.42,7.42,0,0,0-1.765,2.041.964.964,0,0,1-1.657,0,7.42,7.42,0,0,0-1.765-2.041A5.067,5.067,0,0,0,138.291,13.841Z" transform="translate(-1.048 -0.933)"/></g></svg>