<svg xmlns="http://www.w3.org/2000/svg" width="11" height="12" viewBox="0 0 11 12"><defs><style>.a{fill:#650d99;}</style></defs><g transform="translate(-303 -160)"><path class="a" d="M108.288,5.532l-5.3-5.34a.65.65,0,0,0-.922,0l-.39.393a.661.661,0,0,0,0,.928L106.126,6l-4.457,4.489a.661.661,0,0,0,0,.928l.39.393a.65.65,0,0,0,.922,0l5.307-5.345a.666.666,0,0,0,0-.932Z" transform="translate(201.522 160)"/><path class="a" d="M6.81,5.532,1.508.192a.65.65,0,0,0-.922,0L.2.585a.661.661,0,0,0,0,.928L4.648,6,.19,10.487a.661.661,0,0,0,0,.928l.39.393a.65.65,0,0,0,.922,0L6.81,6.463a.666.666,0,0,0,0-.932Z" transform="translate(314 172) rotate(180)"/></g></svg>