<svg xmlns="http://www.w3.org/2000/svg" width="30.018" height="28.652" viewBox="0 0 30.018 28.652"><defs><style>.a{fill:#650d99;isolation:isolate;}</style></defs><g transform="translate(-1540.234 -1298.272)"><path class="a" d="M1572.783,1298.272a.231.231,0,0,0-.23.236v.04a4.017,4.017,0,0,1-8.034,0c0-.014,0-.026,0-.04a.231.231,0,0,0-.231-.236h-3.171v3.8a.232.232,0,0,1-.305.219,3.162,3.162,0,1,0,.01,6.033.23.23,0,0,1,.3.222v4.306h11.013a3.568,3.568,0,0,0,3.568-3.568v-11.013Z" transform="translate(-10.957)"/><path class="a" d="M1567.182,1346.216l-5.527,1.9a2.338,2.338,0,0,0-2.307-2.761h-3.8a.585.585,0,0,1-.288-.075l-3.1-1.742a4.109,4.109,0,0,0-2.013-.527H1546a1.761,1.761,0,0,0-1.658-1.172h-3.518a.586.586,0,0,0-.586.586v10.553a.586.586,0,0,0,.586.586h3.518a1.763,1.763,0,0,0,1.642-1.128,5.351,5.351,0,0,1,1.914.568l3.066,1.84a7.478,7.478,0,0,0,6.939.4l10.943-4.819a2.26,2.26,0,0,0-1.66-4.2Zm-22.257,5.591a.587.587,0,0,1-.586.584h-2.931v-9.38h2.931a.587.587,0,0,1,.586.586Zm23.471-2.471-.018.008-10.961,4.826a6.3,6.3,0,0,1-5.853-.332L1548.5,1352a6.454,6.454,0,0,0-2.4-.73v-7.085h4.055a2.931,2.931,0,0,1,1.438.377l3.1,1.742a1.762,1.762,0,0,0,.863.226h3.8a1.173,1.173,0,0,1,0,2.345h-5.96a.586.586,0,1,0,0,1.172h5.96a2.336,2.336,0,0,0,1.1-.275l7.129-2.45a1.088,1.088,0,1,1,.821,2.016Z" transform="translate(0 -28.985)"/></g></svg>